<svg xmlns="http://www.w3.org/2000/svg" viewBox="0 0 500 500" width="500" height="500">
  <defs>
    <linearGradient id="aGrad" x1="0%" y1="0%" x2="100%" y2="100%">
      <stop offset="0%" style="stop-color:#ffffff"/>
      <stop offset="50%" style="stop-color:#e0e0e0"/>
      <stop offset="100%" style="stop-color:#a0a0a0"/>
    </linearGradient>
    <linearGradient id="iGrad" x1="0%" y1="0%" x2="100%" y2="100%">
      <stop offset="0%" style="stop-color:#ffffff"/>
      <stop offset="100%" style="stop-color:#e8e8e8"/>
    </linearGradient>
    <filter id="glow" x="-50%" y="-50%" width="200%" height="200%">
      <feGaussianBlur in="SourceGraphic" stdDeviation="4" result="blur"/>
      <feMerge>
        <feMergeNode in="blur"/>
        <feMergeNode in="SourceGraphic"/>
      </feMerge>
    </filter>
  </defs>
  <rect width="500" height="500" fill="#0a0a0a"/>
  <g transform="translate(74, 138)">
  <g filter="url(#glow)" fill="url(#aGrad)">
    <rect x="96" y="0" width="32" height="32"/>
    <rect x="64" y="32" width="32" height="32"/>
    <rect x="128" y="32" width="32" height="32"/>
    <rect x="32" y="64" width="32" height="32"/>
    <rect x="160" y="64" width="32" height="32"/>
    <rect x="0" y="96" width="32" height="32"/>
    <rect x="32" y="96" width="32" height="32"/>
    <rect x="64" y="96" width="32" height="32"/>
    <rect x="96" y="96" width="32" height="32"/>
    <rect x="128" y="96" width="32" height="32"/>
    <rect x="160" y="96" width="32" height="32"/>
    <rect x="192" y="96" width="32" height="32"/>
    <rect x="0" y="128" width="32" height="32"/>
    <rect x="192" y="128" width="32" height="32"/>
    <rect x="0" y="160" width="32" height="32"/>
    <rect x="192" y="160" width="32" height="32"/>
    <rect x="0" y="192" width="32" height="32"/>
    <rect x="192" y="192" width="32" height="32"/>
    <rect x="0" y="224" width="32" height="32"/>
    <rect x="192" y="224" width="32" height="32"/>
  </g>
  <g filter="url(#glow)" fill="url(#iGrad)">
    <rect x="256" y="0" width="32" height="32"/>
    <rect x="288" y="0" width="32" height="32"/>
    <rect x="320" y="0" width="32" height="32"/>
    <rect x="288" y="32" width="32" height="32"/>
    <rect x="288" y="64" width="32" height="32"/>
    <rect x="288" y="96" width="32" height="32"/>
    <rect x="288" y="128" width="32" height="32"/>
    <rect x="288" y="160" width="32" height="32"/>
    <rect x="288" y="192" width="32" height="32"/>
    <rect x="256" y="224" width="32" height="32"/>
    <rect x="288" y="224" width="32" height="32"/>
    <rect x="320" y="224" width="32" height="32"/>
  </g>
  </g>
</svg>
